<svg width="800" height="800" viewBox="0 0 69.447 69.447" xmlns="http://www.w3.org/2000/svg"><g data-name="tennis ball"><path data-name="Path 85" d="M69.439 34.724A34.719 34.719 0 1134.719 0a34.724 34.724 0 0134.72 34.724z" fill="#b9d613"/><path data-name="Path 86" d="M39.375.345a35.139 35.139 0 00-4.61-.344A41.069 41.069 0 01.396 29.736a34.3 34.3 0 00-.381 4.635l.183-.026A45.921 45.921 0 0039.347.464zm29.721 34.692a45.487 45.487 0 00-33.488 34.054l-.071.313a34.54 34.54 0 004.818-.455 41.218 41.218 0 0128.686-29.194 36.059 36.059 0 00.388-4.8z" fill="#f7f7f7"/></g></svg>